<svg width="64" height="64" viewBox="0 0 64 64" fill="none" xmlns="http://www.w3.org/2000/svg">
  <defs>
    <linearGradient id="iconGradient" x1="0" y1="0" x2="64" y2="64">
      <stop offset="0%" stop-color="#4F46E5"/>
      <stop offset="100%" stop-color="#3B82F6"/>
    </linearGradient>
  </defs>
  <path d="M56 8H8C5.79086 8 4 9.79086 4 12V44C4 46.2091 5.79086 48 8 48H24V56L40 48H56C58.2091 48 60 46.2091 60 44V12C60 9.79086 58.2091 8 56 8Z" fill="url(#iconGradient)"/>
  <path d="M38 21 C38 18, 36 17, 33 17 S27 18, 27 22 C27 26, 30 27, 32 30 S35 34, 35 38 C35 42, 32 43, 29 43 S24 42, 24 39" stroke="white" stroke-width="4.5" stroke-linecap="round" fill="none"/>
</svg>
